<svg width="504" height="539" viewBox="0 0 504 539" fill="none" xmlns="http://www.w3.org/2000/svg">
<path fill-rule="evenodd" clip-rule="evenodd" d="M292.234 109.394C248.569 106.67 207.914 64.8528 167.336 81.2092C126.768 97.5619 119.395 150.587 96.932 188.118C75.2186 224.398 42.712 254.98 38.1746 297.016C33.1415 343.645 40.0582 394.911 70.7865 430.342C101.291 465.515 152.789 467.381 197.421 480.634C244.294 494.553 291.695 526.493 337.566 509.56C383.608 492.565 405.4 440.892 425.897 396.297C444.072 356.755 441.061 313.815 447.331 270.75C455.802 212.56 509.778 142.424 469.029 100.03C427.107 56.4162 352.611 113.161 292.234 109.394Z" fill="#BC906A"/>
</svg>
