<svg width="197" height="250" viewBox="0 0 197 250" fill="none" xmlns="http://www.w3.org/2000/svg">
<path d="M145.993 2.83624C144.387 2.9266 142.837 3.46076 141.518 4.37884C140.2 5.29692 139.164 6.56261 138.527 8.034C136.66 12.5273 139.064 17.8054 142.673 21.082C146.281 24.3585 150.916 26.2314 155.128 28.6932C160.785 31.9997 165.868 36.5897 168.698 42.4817C171.529 48.3737 171.83 55.6722 168.503 61.3011C165.415 66.5256 159.8 69.6525 154.444 72.5363" stroke="#3F3D56" stroke-miterlimit="10"/>
<path d="M150.749 6.41724C154.392 6.41724 157.345 4.98915 157.345 3.22751C157.345 1.46587 154.392 0.0377808 150.749 0.0377808C147.107 0.0377808 144.154 1.46587 144.154 3.22751C144.154 4.98915 147.107 6.41724 150.749 6.41724Z" fill="#E1B545"/>
<path d="M156.026 27.4319C159.668 27.4319 162.621 26.0038 162.621 24.2422C162.621 22.4805 159.668 21.0525 156.026 21.0525C152.383 21.0525 149.43 22.4805 149.43 24.2422C149.43 26.0038 152.383 27.4319 156.026 27.4319Z" fill="#E1B545"/>
<path d="M143.965 30.8093C147.608 30.8093 150.561 29.3812 150.561 27.6195C150.561 25.8579 147.608 24.4298 143.965 24.4298C140.323 24.4298 137.37 25.8579 137.37 27.6195C137.37 29.3812 140.323 30.8093 143.965 30.8093Z" fill="#E1B545"/>
<path d="M162.81 48.4466C166.452 48.4466 169.405 47.0185 169.405 45.2569C169.405 43.4952 166.452 42.0671 162.81 42.0671C159.167 42.0671 156.214 43.4952 156.214 45.2569C156.214 47.0185 159.167 48.4466 162.81 48.4466Z" fill="#E1B545"/>
<path d="M176 48.4466C179.643 48.4466 182.596 47.0185 182.596 45.2569C182.596 43.4952 179.643 42.0671 176 42.0671C172.358 42.0671 169.405 43.4952 169.405 45.2569C169.405 47.0185 172.358 48.4466 176 48.4466Z" fill="#E1B545"/>
<path d="M180.847 107.456C179.368 106.826 177.741 106.619 176.15 106.857C174.559 107.096 173.066 107.772 171.839 108.808C168.161 112.007 167.959 117.799 169.729 122.331C171.5 126.863 174.816 130.592 177.49 134.661C181.082 140.126 183.587 146.487 183.493 153.018C183.399 159.548 180.411 166.22 174.918 169.79C169.82 173.104 163.394 173.421 157.31 173.634" stroke="#3F3D56" stroke-miterlimit="10"/>
<path d="M190.842 112.829C191.628 111.251 189.62 108.665 186.357 107.053C183.094 105.441 179.811 105.414 179.025 106.992C178.239 108.57 180.247 111.156 183.51 112.768C186.773 114.38 190.055 114.407 190.842 112.829Z" fill="#E1B545"/>
<path d="M186.189 133.989C186.976 132.411 184.968 129.825 181.704 128.213C178.441 126.602 175.159 126.574 174.372 128.152C173.586 129.731 175.594 132.316 178.857 133.928C182.12 135.54 185.403 135.567 186.189 133.989Z" fill="#E1B545"/>
<path d="M173.878 131.678C174.664 130.1 172.656 127.514 169.393 125.902C166.13 124.291 162.847 124.263 162.061 125.841C161.275 127.42 163.283 130.006 166.546 131.617C169.809 133.229 173.092 133.256 173.878 131.678Z" fill="#E1B545"/>
<path d="M182.887 155.817C183.674 154.238 181.666 151.652 178.403 150.041C175.139 148.429 171.857 148.402 171.071 149.98C170.284 151.558 172.292 154.144 175.555 155.756C178.819 157.367 182.101 157.395 182.887 155.817Z" fill="#E1B545"/>
<path d="M194.704 161.653C195.49 160.075 193.483 157.489 190.219 155.877C186.956 154.266 183.674 154.238 182.887 155.817C182.101 157.395 184.109 159.981 187.372 161.592C190.635 163.204 193.918 163.231 194.704 161.653Z" fill="#E1B545"/>
<path d="M10.5496 137.537C11.6909 136.408 13.1255 135.617 14.6928 135.254C16.26 134.891 17.8978 134.97 19.4226 135.481C24.0271 137.102 26.3636 142.41 26.3996 147.272C26.4356 152.135 24.7367 156.82 23.7609 161.584C22.4503 167.984 22.482 174.817 24.9919 180.851C27.5018 186.885 32.753 191.986 39.1817 193.284C45.1487 194.489 51.2375 192.42 56.9712 190.381" stroke="#3F3D56" stroke-miterlimit="10"/>
<path d="M10.0461 143.453C12.4806 140.755 13.3873 137.614 12.0713 136.436C10.7552 135.259 7.7148 136.491 5.28026 139.189C2.84572 141.887 1.93899 145.029 3.25503 146.206C4.57108 147.383 7.61152 146.151 10.0461 143.453Z" fill="#E1B545"/>
<path d="M22.2188 161.406C24.6533 158.708 25.56 155.567 24.244 154.39C22.9279 153.212 19.8875 154.445 17.4529 157.143C15.0184 159.84 14.1117 162.982 15.4277 164.159C16.7438 165.337 19.7842 164.104 22.2188 161.406Z" fill="#E1B545"/>
<path d="M32.8024 154.731C35.2369 152.033 36.1437 148.892 34.8276 147.714C33.5116 146.537 30.4711 147.77 28.0366 150.467C25.6021 153.165 24.6953 156.307 26.0114 157.484C27.3274 158.662 30.3679 157.429 32.8024 154.731Z" fill="#E1B545"/>
<path d="M33.3838 180.476C35.8183 177.778 36.7251 174.637 35.409 173.459C34.093 172.282 31.0525 173.514 28.618 176.212C26.1834 178.91 25.2767 182.052 26.5927 183.229C27.9088 184.406 30.9492 183.174 33.3838 180.476Z" fill="#E1B545"/>
<path d="M24.5675 190.246C27.002 187.548 27.9087 184.406 26.5927 183.229C25.2767 182.052 22.2362 183.284 19.8017 185.982C17.3671 188.68 16.4604 191.821 17.7765 192.999C19.0925 194.176 22.1329 192.944 24.5675 190.246Z" fill="#E1B545"/>
<path d="M162.237 94.2135L161.2 101.783L154.793 148.488L144.301 224.974L141.674 244.123C141.474 245.585 140.748 246.925 139.632 247.895C138.516 248.865 137.084 249.4 135.602 249.399H65.6337C64.1544 249.4 62.7248 248.867 61.6089 247.9C60.4929 246.933 59.766 245.597 59.5621 244.138L56.89 224.974L46.2205 148.488L39.7004 101.749L38.6526 94.2285C38.5317 93.3647 38.5982 92.485 38.8476 91.6489C39.0971 90.8127 39.5238 90.0396 40.0989 89.3816C40.674 88.7237 41.3841 88.1961 42.1814 87.8347C42.9786 87.4732 43.8445 87.2862 44.7205 87.2862H156.165C157.04 87.2866 157.904 87.4733 158.7 87.8339C159.497 88.1944 160.206 88.7205 160.781 89.3767C161.356 90.0328 161.784 90.8039 162.035 91.6382C162.286 92.4725 162.355 93.3506 162.237 94.2135Z" fill="#E1B545"/>
<path d="M149.144 67.0221H52.1036C48.7191 67.0221 45.9755 69.7539 45.9755 73.1238V81.1844C45.9755 84.5543 48.7191 87.2862 52.1036 87.2862H149.144C152.528 87.2862 155.272 84.5543 155.272 81.1844V73.1238C155.272 69.7539 152.528 67.0221 149.144 67.0221Z" fill="#2F2E41"/>
<path opacity="0.1" d="M155.272 76.5987V81.1844C155.272 82.8027 154.626 84.3547 153.477 85.499C152.328 86.6433 150.769 87.2862 149.144 87.2862H52.1036C50.4783 87.2862 48.9196 86.6433 47.7704 85.499C46.6211 84.3547 45.9755 82.8027 45.9755 81.1844V76.61C82.3254 80.0586 118.923 80.0549 155.272 76.5987Z" fill="black"/>
<path d="M71.4152 145.264C80.5736 145.264 87.998 137.872 87.998 128.753C87.998 119.634 80.5736 112.241 71.4152 112.241C62.2567 112.241 54.8323 119.634 54.8323 128.753C54.8323 137.872 62.2567 145.264 71.4152 145.264Z" fill="#2F2E41"/>
<path d="M130.209 145.264C139.368 145.264 146.792 137.872 146.792 128.753C146.792 119.634 139.368 112.241 130.209 112.241C121.051 112.241 113.626 119.634 113.626 128.753C113.626 137.872 121.051 145.264 130.209 145.264Z" fill="#2F2E41"/>
<path d="M70.6613 133.256C73.1591 133.256 75.184 131.24 75.184 128.753C75.184 126.266 73.1591 124.25 70.6613 124.25C68.1636 124.25 66.1387 126.266 66.1387 128.753C66.1387 131.24 68.1636 133.256 70.6613 133.256Z" fill="white"/>
<path d="M77.4453 121.998C78.4861 121.998 79.3298 121.158 79.3298 120.122C79.3298 119.085 78.4861 118.245 77.4453 118.245C76.4046 118.245 75.5609 119.085 75.5609 120.122C75.5609 121.158 76.4046 121.998 77.4453 121.998Z" fill="white"/>
<path d="M130.209 133.256C132.707 133.256 134.732 131.24 134.732 128.753C134.732 126.266 132.707 124.25 130.209 124.25C127.711 124.25 125.686 126.266 125.686 128.753C125.686 131.24 127.711 133.256 130.209 133.256Z" fill="white"/>
<path d="M136.993 121.998C138.034 121.998 138.877 121.158 138.877 120.122C138.877 119.085 138.034 118.245 136.993 118.245C135.952 118.245 135.109 119.085 135.109 120.122C135.109 121.158 135.952 121.998 136.993 121.998Z" fill="white"/>
<path opacity="0.1" d="M161.888 91.2264H161.889C161.887 91.2218 161.885 91.2175 161.883 91.2129C161.722 90.7929 161.514 90.3919 161.265 90.0173L161.264 90.0163C161.19 89.9058 161.112 89.7988 161.031 89.6934C161.004 89.6581 160.976 89.6236 160.949 89.5889C160.714 89.2955 160.452 89.024 160.168 88.7781C160.104 88.7231 160.04 88.6688 159.974 88.6164C159.9 88.5577 159.826 88.5 159.749 88.4446C159.653 88.3753 159.554 88.3101 159.454 88.2462C159.375 88.1959 159.296 88.1466 159.215 88.0999C159.089 88.0275 158.961 87.9595 158.83 87.8957C158.767 87.8656 158.704 87.8375 158.64 87.8094C158.515 87.754 158.387 87.7029 158.258 87.656C158.205 87.6371 158.154 87.6163 158.101 87.5988C157.922 87.5392 157.738 87.4878 157.551 87.4446C157.506 87.4341 157.459 87.4266 157.413 87.4171C157.26 87.3856 157.105 87.3598 156.948 87.3399C156.891 87.3327 156.834 87.3253 156.777 87.3197C156.576 87.2999 156.373 87.2862 156.165 87.2862L156.165 87.2862H44.7204C43.8455 87.2891 42.9812 87.478 42.1855 87.8404C41.3898 88.2027 40.6809 88.73 40.1064 89.3871C39.5319 90.0443 39.105 90.8159 38.8542 91.6506C38.6034 92.4853 38.5345 93.3636 38.6522 94.2269L38.8292 95.4957L39.7003 101.749L39.7014 101.749L46.2209 148.488H46.2204L54.7788 209.839L59.563 244.137C59.7665 245.596 60.4931 246.932 61.6086 247.9C62.7242 248.867 64.1534 249.399 65.6326 249.399H68.953C68.7887 248.973 68.6731 248.53 68.6083 248.078L65.3855 224.974H144.301L154.793 148.488H54.7165L48.3013 102.497C85.8834 105.532 123.66 105.293 161.2 101.783L162.237 94.2135C162.375 93.2045 162.255 92.1771 161.888 91.2264Z" fill="black"/>
<path d="M171.003 97.4183C124.223 102.503 77.0249 102.503 30.244 97.4183C28.6188 97.4183 27.0602 96.7754 25.911 95.6312C24.7619 94.487 24.1163 92.9351 24.1163 91.3169V83.2555C24.1163 81.6373 24.7619 80.0854 25.911 78.9412C27.0602 77.7969 28.6188 77.1541 30.244 77.1541C76.9878 82.8766 124.26 82.8766 171.003 77.1541C172.629 77.1541 174.187 77.7969 175.336 78.9412C176.486 80.0854 177.131 81.6373 177.131 83.2555V91.3169C177.131 92.9351 176.486 94.487 175.336 95.6312C174.187 96.7754 172.629 97.4183 171.003 97.4183Z" fill="#2F2E41"/>
<path d="M147.182 222.193H52.9664C52.1206 222.193 51.3025 221.892 50.6593 221.346C50.016 220.799 49.5898 220.041 49.4572 219.21L39.2787 155.361C39.1981 154.856 39.2286 154.339 39.3679 153.847C39.5072 153.354 39.7521 152.898 40.0857 152.509C40.4192 152.12 40.8335 151.808 41.3001 151.593C41.7666 151.379 42.2742 151.268 42.7879 151.268H158.039C158.556 151.268 159.066 151.381 159.535 151.597C160.004 151.814 160.419 152.13 160.753 152.523C161.086 152.916 161.33 153.377 161.466 153.873C161.603 154.369 161.628 154.889 161.542 155.397L150.685 219.246C150.545 220.07 150.116 220.818 149.475 221.357C148.834 221.897 148.021 222.193 147.182 222.193Z" fill="#2F2E41"/>
<path d="M136.461 176.681C136.905 176.762 137.319 176.961 137.66 177.256C138 177.552 138.254 177.933 138.395 178.36C138.536 178.788 138.559 179.245 138.461 179.684C138.363 180.123 138.147 180.527 137.838 180.854C131.86 187.199 117.366 200.428 100.435 200.428C83.5042 200.428 69.0103 187.199 63.0325 180.854C62.723 180.527 62.5079 180.123 62.4098 179.684C62.3118 179.245 62.3344 178.788 62.4754 178.36C62.6163 177.933 62.8703 177.552 63.2106 177.256C63.551 176.961 63.9651 176.762 64.4093 176.681C88.2267 172.318 112.644 172.318 136.461 176.681H136.461Z" fill="#A27276"/>
<path d="M119.279 180.638C119.738 180.711 120.167 180.909 120.52 181.211C120.872 181.512 121.134 181.905 121.275 182.346C121.417 182.787 121.432 183.258 121.321 183.707C121.209 184.156 120.975 184.566 120.644 184.89C116.595 188.82 109.061 194.746 100.435 194.746C91.8093 194.746 84.275 188.82 80.2269 184.89C79.8954 184.566 79.6609 184.156 79.5494 183.707C79.4379 183.258 79.4537 182.787 79.5952 182.346C79.7366 181.905 79.9982 181.512 80.3506 181.211C80.7031 180.909 81.1327 180.711 81.5917 180.638C94.0686 178.575 106.802 178.575 119.279 180.638Z" fill="white"/>
</svg>
