<svg width="446" height="477" viewBox="0 0 446 477" fill="none" xmlns="http://www.w3.org/2000/svg">
<path fill-rule="evenodd" clip-rule="evenodd" d="M188.134 96.7524C226.783 94.3413 262.767 57.3279 298.684 71.8054C334.591 86.2795 341.118 133.213 361 166.433C380.219 198.545 408.991 225.614 413.007 262.821C417.462 304.093 411.34 349.47 384.142 380.831C357.142 411.963 311.559 413.615 272.055 425.346C230.566 437.665 188.611 465.936 148.01 450.949C107.256 435.905 87.9676 390.168 69.8252 350.697C53.738 315.697 56.4034 277.69 50.854 239.572C43.3558 188.067 -4.41974 125.988 31.6489 88.4639C68.7549 49.8606 134.692 100.086 188.134 96.7524Z" fill="#5B341E"/>
</svg>
